<?xml version="1.0" encoding="UTF-8" standalone="no"?>
<!-- Created with Inkscape (http://www.inkscape.org/) -->

<svg
   xmlns:dc="http://purl.org/dc/elements/1.1/"
   xmlns:cc="http://creativecommons.org/ns#"
   xmlns:rdf="http://www.w3.org/1999/02/22-rdf-syntax-ns#"
   xmlns:svg="http://www.w3.org/2000/svg"
   xmlns="http://www.w3.org/2000/svg"
   xmlns:sodipodi="http://sodipodi.sourceforge.net/DTD/sodipodi-0.dtd"
   xmlns:inkscape="http://www.inkscape.org/namespaces/inkscape"
   width="389.2496"
   height="481.40479"
   id="svg5200"
   version="1.1"
   inkscape:version="0.48.2 r9819"
   sodipodi:docname="New document 9">
  <defs
     id="defs3" />
  <sodipodi:namedview
     inkscape:document-units="mm"
     id="base"
     pagecolor="#ffffff"
     bordercolor="#666666"
     borderopacity="1.0"
     inkscape:pageopacity="0.0"
     inkscape:pageshadow="2"
     inkscape:zoom="0.35"
     inkscape:cx="221.76766"
     inkscape:cy="29.273827"
     inkscape:current-layer="layer1"
     showgrid="false"
     units="mm"
     fit-margin-top="0"
     fit-margin-left="0"
     fit-margin-right="0"
     fit-margin-bottom="0"
     inkscape:window-width="1440"
     inkscape:window-height="848"
     inkscape:window-x="-8"
     inkscape:window-y="-8"
     inkscape:window-maximized="1" />
  <metadata
     id="metadata4">
    <rdf:RDF>
      <cc:Work
         rdf:about="">
        <dc:format>image/svg+xml</dc:format>
        <dc:type
           rdf:resource="http://purl.org/dc/dcmitype/StillImage" />
        <dc:title></dc:title>
      </cc:Work>
    </rdf:RDF>
  </metadata>
  <g
     inkscape:label="Layer 1"
     inkscape:groupmode="layer"
     id="layer1"
     transform="translate(-128.23234,-80.23121)">
    <g
       id="g5154"
       transform="translate(-405.27624,-282.08129)">
      <path
         style="fill:#174d7c;fill-opacity:1;stroke:#000000;stroke-width:0.74601668px;stroke-linecap:butt;stroke-linejoin:miter;stroke-opacity:0"
         d="m 709.48967,634.35681 c -52.17885,58.11939 -79.27614,133.2814 -157.54863,150.42415 36.4839,-51.17722 59.83063,-84.05799 84.50678,-138.70196 -19.36364,50.56935 -30.94982,101.50808 -86.01009,107.61531 27.34314,-41.79576 52.72098,-67.76348 68.55074,-114.73024 l 92.25562,-8.28242 z"
         id="path5156"
         inkscape:connector-curvature="0"
         sodipodi:nodetypes="ccccccc" />
      <path
         sodipodi:type="arc"
         style="fill:#ffffff;fill-opacity:0.65957444;stroke:none"
         id="path5158"
         sodipodi:cx="290.74814"
         sodipodi:cy="223.09731"
         sodipodi:rx="111.01292"
         sodipodi:ry="78.120209"
         d="m 401.76105,223.09731 c 0,43.1446 -49.70217,78.1202 -111.01291,78.1202 -61.31074,0 -111.01292,-34.9756 -111.01292,-78.1202 0,-43.1446 49.70218,-78.12021 111.01292,-78.12021 60.52141,0 109.89052,34.11321 110.99445,76.69527"
         transform="matrix(1.0609646,0,0,2.2971603,390.10601,92.778025)"
         sodipodi:start="0"
         sodipodi:end="6.264944"
         sodipodi:open="true" />
      <path
         style="fill:#45aaff;fill-opacity:1;stroke:none"
         d="m 695.07836,421.0117 0,0.0312 c -55.4427,1.63681 -92.67309,46.87959 -119.125,151.375 -27.49898,108.63176 -49.32012,203.72509 119.125,214.84375 0.78005,0.0322 0.88457,0.0417 1.59375,0 168.4451,-11.11856 146.62398,-106.21192 119.125,-214.84371 -26.45191,-104.4954 -63.6823,-149.73819 -119.125,-151.375 -0.53961,-0.024 -1.08983,-0.0257 -1.59375,-0.0312 z"
         id="path5160"
         inkscape:connector-curvature="0"
         sodipodi:nodetypes="ccsccscc" />
      <path
         style="fill:#ffa200;fill-opacity:1;stroke:none"
         d="m 668.02162,770.23668 -6.19219,-0.85343 -5.20968,51.6244 c -76.6164,-44.87818 -80.467,1.20229 -78.9459,14.96852 34.26202,-2.44101 61.63209,3.38829 90.23257,7.74113 z"
         id="path5162"
         inkscape:connector-curvature="0"
         sodipodi:nodetypes="cccccc" />
      <path
         sodipodi:nodetypes="cccccc"
         inkscape:connector-curvature="0"
         id="path5164"
         d="m 748.89629,770.23668 6.19219,-0.85343 5.20968,51.6244 c 62.74214,-33.63662 74.39692,-15.02653 78.9459,14.96852 -34.26202,-2.44101 -61.63209,3.38829 -90.23257,7.74113 z"
         style="fill:#ffa200;fill-opacity:1;stroke:none" />
      <path
         style="fill:#ffa200;fill-opacity:1;stroke:none"
         d="m 740.85608,457.1055 c -31.39179,9.25779 -35.13717,71.29964 29.01,66.4556 -5.49074,-3.34244 -28.65227,-15.17362 -29.81825,-27.40167 26.04471,13.84883 58.61525,19.24585 92.45728,18.88614 4.4981,-20.20497 -39.30122,-77.59311 -91.64903,-57.94007 z"
         id="path5166"
         inkscape:connector-curvature="0"
         sodipodi:nodetypes="ccccc" />
      <path
         style="fill:#ffffff;fill-opacity:1;stroke:none"
         d="m 654.40204,470.21345 c 28.46143,-22.59125 50.37376,-13.25383 49.05964,7.36107 -1.56922,11.45711 -22.18228,18.461 -49.05964,-7.36107 z"
         id="path5168"
         inkscape:connector-curvature="0"
         sodipodi:nodetypes="ccc" />
      <path
         sodipodi:nodetypes="cccccccccccccccccc"
         inkscape:connector-curvature="0"
         id="path5170"
         d="m 640.82108,362.3125 c 11.59349,16.52564 28.92468,26.38991 30.0625,48.53125 -17.29172,-20.07254 -36.83917,-32.60573 -59.3125,-35.40625 10.14742,15.73608 21.54074,18.05652 30.15625,43.75 -52.16,-6.74743 -76.05556,37.34693 -108.21875,66.59375 35.97596,-15.82105 73.53188,-32.06916 93.65625,-43.71875 -46.3587,68.68667 -73.28604,161.38415 -70.03125,239.5 28.51729,-4.22738 56.80868,-7.74568 72.875,-36.875 0.50929,-12.71032 2.78496,-15.28616 9.97245,-23.98517 -1.04602,-9.28341 -7.557,-19.34942 -17.97901,-4.94057 1.57996,-11.37968 5.27309,-8.83333 8.75406,-16.07867 -2.4624,-5.22898 -5.97164,-24.0376 -27.435,6.00441 5.1898,-24.08181 16.00212,-45.03225 26.3125,-62.1875 -11.35828,0.44024 -30.65924,15.10385 -41.8125,48.8125 -3.89696,-95.02156 55.05004,-187.31833 150.8125,-159.53125 -4.41703,-21.87304 -28.07446,-44.7724 -58.375,-61.46875 12.35096,18.24151 15.05404,26.3957 18.71875,46.8125 -7.5992,-35.94503 -35.07547,-42.69772 -58.15625,-55.8125 z"
         style="fill:#174d7c;fill-opacity:1;stroke:none" />
      <path
         style="fill:#174d7c;fill-opacity:1;stroke:#000000;stroke-width:1px;stroke-linecap:butt;stroke-linejoin:miter;stroke-opacity:0"
         d="m 812.02255,558.04637 c 12.47773,33.15558 17.0313,58.48789 39.57159,102.05916 37.33088,3.16561 49.15971,26.16616 70.66404,41.64131 -23.8294,-9.51979 -48.07822,-20.08814 -68.14033,-20.18972 22.64437,12.17734 29.49222,33.38126 39.1176,52.99803 -16.51414,-24.74207 -33.31118,-30.05565 -47.9506,-36.59388 16.54392,17.85883 23.0253,36.9755 23.9753,56.78359 -14.83339,-22.97406 -31.62141,-41.9393 -46.68874,-52.99804 -20.37839,-39.4545 -3.00915,-95.49091 -10.54886,-143.70047 z"
         id="path5172"
         inkscape:connector-curvature="0"
         sodipodi:nodetypes="ccccccccc" />
      <path
         sodipodi:type="arc"
         style="fill:#174d7c;fill-opacity:1;stroke:#000000;stroke-width:2.83464575;stroke-linecap:round;stroke-linejoin:round;stroke-miterlimit:4;stroke-opacity:0;stroke-dasharray:none;stroke-dashoffset:0"
         id="path5174"
         sodipodi:cx="556.04657"
         sodipodi:cy="234.2995"
         sodipodi:rx="18.843229"
         sodipodi:ry="14.389375"
         d="m 574.8898,234.2995 c 0,7.94703 -8.4364,14.38937 -18.84323,14.38937 -10.40683,0 -18.84323,-6.44234 -18.84323,-14.38937 0,-7.94703 8.4364,-14.38938 18.84323,-14.38938 10.40683,0 18.84323,6.44235 18.84323,14.38938 z"
         transform="matrix(0.69562158,0,0,0.69562158,297.58797,309.10831)" />
      <path
         sodipodi:open="true"
         sodipodi:end="6.264944"
         sodipodi:start="0"
         transform="matrix(0.63835732,0,0,0.79704687,330.58765,330.91966)"
         d="m 575.50239,178.86891 c 0,3.28595 -3.39028,5.94974 -7.5724,5.94974 -4.18212,0 -7.5724,-2.66379 -7.5724,-5.94974 0,-3.28595 3.39028,-5.94974 7.5724,-5.94974 4.12828,0 7.49584,2.59811 7.57114,5.84122"
         sodipodi:ry="5.9497428"
         sodipodi:rx="7.5724001"
         sodipodi:cy="178.86891"
         sodipodi:cx="567.92999"
         id="path5176"
         style="fill:#ffffff;fill-opacity:1;stroke:none"
         sodipodi:type="arc" />
    </g>
  </g>
</svg>
